<svg width="25" height="24" viewBox="0 0 25 24" fill="none" xmlns="http://www.w3.org/2000/svg">
<g clip-path="url(#clip0_985_20450)">
<path fill-rule="evenodd" clip-rule="evenodd" d="M12.6419 0.320312C6.02602 0.320312 0.677734 5.70803 0.677734 12.3734C0.677734 17.7013 4.10457 22.2114 8.85849 23.8076C9.45286 23.9276 9.67057 23.5482 9.67057 23.2291C9.67057 22.9497 9.65098 21.9919 9.65098 20.994C6.32284 21.7125 5.62978 19.5572 5.62978 19.5572C5.09493 18.1603 4.30244 17.8013 4.30244 17.8013C3.21315 17.0629 4.38179 17.0629 4.38179 17.0629C5.59011 17.1427 6.22415 18.3001 6.22415 18.3001C7.29361 20.1359 9.01694 19.6172 9.71024 19.2978C9.80918 18.5195 10.1263 17.9808 10.4631 17.6815C7.80862 17.4021 5.01583 16.3645 5.01583 11.7347C5.01583 10.4176 5.49093 9.34009 6.24374 8.50205C6.12496 8.20279 5.70888 6.96533 6.36276 5.3091C6.36276 5.3091 7.37295 4.98975 9.65073 6.54631C10.6259 6.28248 11.6316 6.14826 12.6419 6.14713C13.6521 6.14713 14.6819 6.28697 15.6328 6.54631C17.9108 4.98975 18.921 5.3091 18.921 5.3091C19.5749 6.96533 19.1586 8.20279 19.0398 8.50205C19.8125 9.34009 20.268 10.4176 20.268 11.7347C20.268 16.3645 17.4752 17.382 14.8009 17.6815C15.2368 18.0606 15.613 18.7789 15.613 19.9164C15.613 21.5327 15.5934 22.83 15.5934 23.2289C15.5934 23.5482 15.8113 23.9276 16.4055 23.8078C21.1594 22.2111 24.5862 17.7013 24.5862 12.3734C24.6058 5.70803 19.2379 0.320312 12.6419 0.320312Z" fill="#24292F"/>
</g>
<defs>
<clipPath id="clip0_985_20450">
<rect width="23.9998" height="23.51" fill="white" transform="translate(0.677734 0.320312)"/>
</clipPath>
</defs>
</svg>
