<svg width="67" height="68" viewBox="0 0 67 68" fill="none" xmlns="http://www.w3.org/2000/svg">
<path d="M62.98 34.708C62.98 32.498 62.7846 30.373 62.4217 28.333H33.5V40.3888H50.0267C49.3148 44.2847 47.1513 47.5855 43.899 49.7955V57.6155H53.8233C59.63 52.1897 62.98 44.1997 62.98 34.708Z" fill="#4285F4"/>
<path d="M33.4997 65.1669C41.7909 65.1669 48.7422 62.376 53.823 57.616L43.8987 49.796C41.1489 51.666 37.6314 52.771 33.4997 52.771C25.5016 52.771 18.7318 47.2885 16.317 39.9219H6.05762V47.9969C11.1105 58.1827 21.4955 65.1669 33.4997 65.1669Z" fill="#34A853"/>
<path d="M16.3176 39.9213C15.7035 38.0513 15.3545 36.0538 15.3545 33.9996C15.3545 31.9454 15.7035 29.9479 16.3176 28.0779V20.0029H6.05824C3.90866 24.346 2.7901 29.1393 2.79199 33.9996C2.79199 39.0288 3.97845 43.7888 6.05824 47.9963L16.3176 39.9213Z" fill="#FBBC05"/>
<path d="M33.4997 15.2288C38.0082 15.2288 42.0562 16.8013 45.2387 19.8897L54.0464 10.9505C48.7282 5.92134 41.777 2.83301 33.4997 2.83301C21.4955 2.83301 11.1105 9.81717 6.05762 20.003L16.317 28.078C18.7318 20.7113 25.5016 15.2288 33.4997 15.2288Z" fill="#EA4335"/>
</svg>
