<svg width="25" height="24" viewBox="0 0 25 24" fill="none" xmlns="http://www.w3.org/2000/svg">
<g clip-path="url(#clip0_985_20435)">
<path d="M7.94997 0.0839246C6.67318 0.144164 5.80127 0.347923 5.03903 0.647441C4.25016 0.954879 3.58152 1.36744 2.91625 2.03511C2.25097 2.70279 1.8413 3.3719 1.53602 4.16198C1.24058 4.92589 1.04042 5.79853 0.984021 7.07604C0.927621 8.35355 0.915141 8.76419 0.921381 12.0229C0.927621 15.2816 0.942021 15.6901 1.00394 16.9702C1.0649 18.2468 1.26794 19.1184 1.56746 19.8809C1.87537 20.6698 2.28745 21.3382 2.95537 22.0037C3.62328 22.6692 4.29192 23.0779 5.08391 23.3837C5.84711 23.6786 6.71998 23.8798 7.99725 23.9357C9.27453 23.9916 9.68564 24.0046 12.9434 23.9983C16.2011 23.9921 16.6113 23.9777 17.8912 23.917C19.1711 23.8562 20.0382 23.6518 20.8009 23.3537C21.5898 23.0451 22.2587 22.6337 22.9237 21.9655C23.5887 21.2974 23.9982 20.6278 24.3032 19.8372C24.5989 19.074 24.7998 18.2012 24.8552 16.9249C24.9111 15.644 24.9243 15.235 24.9181 11.9768C24.9119 8.71859 24.8972 8.31011 24.8365 7.03044C24.7758 5.75077 24.5725 4.88173 24.2732 4.11878C23.9648 3.3299 23.5532 2.66199 22.8856 1.99599C22.2179 1.33 21.5478 0.920799 20.7575 0.616481C19.9938 0.321043 19.1214 0.119684 17.8441 0.0644847C16.5669 0.00928507 16.1558 -0.00487483 12.8968 0.00136512C9.63788 0.00760508 9.22989 0.021525 7.94997 0.0839246ZM8.09013 21.7769C6.92014 21.726 6.28486 21.5316 5.86151 21.3689C5.30087 21.1529 4.90151 20.8918 4.4796 20.4739C4.05768 20.0561 3.79848 19.6553 3.5796 19.0959C3.4152 18.6725 3.21721 18.038 3.16249 16.868C3.10297 15.6034 3.09049 15.2237 3.08353 12.02C3.07657 8.81627 3.08881 8.43707 3.14425 7.17204C3.19417 6.00301 3.38976 5.36701 3.55224 4.94389C3.76824 4.38254 4.0284 3.9839 4.4472 3.56222C4.86599 3.14054 5.26559 2.88087 5.82551 2.66199C6.24839 2.49687 6.88294 2.30055 8.05245 2.24487C9.31797 2.18487 9.69716 2.17287 12.9004 2.16591C16.1037 2.15895 16.4838 2.17095 17.7498 2.22663C18.9189 2.27751 19.5551 2.47119 19.9777 2.63463C20.5386 2.85063 20.9377 3.11006 21.3594 3.52958C21.7811 3.9491 22.041 4.34726 22.2599 4.90837C22.4252 5.33005 22.6216 5.96437 22.6768 7.1346C22.737 8.40011 22.7507 8.77955 22.7564 11.9826C22.7622 15.1856 22.7509 15.566 22.6955 16.8305C22.6444 18.0005 22.4504 18.636 22.2875 19.0599C22.0715 19.6203 21.8111 20.0199 21.392 20.4413C20.973 20.8627 20.5739 21.1224 20.0137 21.3413C19.5913 21.5062 18.9561 21.703 17.7875 21.7587C16.522 21.8182 16.1428 21.8307 12.9383 21.8376C9.73388 21.8446 9.35588 21.8316 8.09037 21.7769M17.8727 5.58637C17.8732 5.87119 17.9581 6.14948 18.1168 6.38603C18.2754 6.62258 18.5006 6.80677 18.764 6.91531C19.0273 7.02384 19.3169 7.05185 19.5962 6.99578C19.8754 6.93971 20.1318 6.80209 20.3328 6.60032C20.5338 6.39855 20.6705 6.1417 20.7255 5.86225C20.7806 5.58279 20.7515 5.29329 20.642 5.03036C20.5325 4.76742 20.3475 4.54287 20.1104 4.38509C19.8732 4.22732 19.5946 4.14341 19.3098 4.14398C18.928 4.14474 18.5621 4.29712 18.2926 4.56761C18.0231 4.83809 17.8721 5.20454 17.8727 5.58637ZM6.75838 12.0118C6.7651 15.415 9.52892 18.1676 12.9314 18.1611C16.3338 18.1546 19.0883 15.391 19.0818 11.9878C19.0753 8.58467 16.3108 5.83141 12.9079 5.83813C9.50492 5.84485 6.7519 8.60915 6.75838 12.0118ZM8.91981 12.0075C8.91824 11.2164 9.15131 10.4426 9.58954 9.78389C10.0278 9.12521 10.6515 8.61128 11.3818 8.30708C12.1121 8.00288 12.9162 7.92208 13.6925 8.07488C14.4687 8.22769 15.1822 8.60725 15.7427 9.16555C16.3032 9.72386 16.6856 10.4358 16.8415 11.2115C16.9974 11.9871 16.9197 12.7915 16.6184 13.523C16.3171 14.2546 15.8057 14.8803 15.1487 15.3211C14.4918 15.762 13.7189 15.9981 12.9278 15.9997C12.4025 16.0008 11.8821 15.8984 11.3963 15.6983C10.9106 15.4983 10.469 15.2045 10.0969 14.8338C9.72467 14.4631 9.42915 14.0227 9.22719 13.5378C9.02523 13.0528 8.92078 12.5328 8.91981 12.0075Z" fill="black"/>
</g>
<defs>
<clipPath id="clip0_985_20435">
<rect width="23.9998" height="23.9998" fill="white" transform="translate(0.919922)"/>
</clipPath>
</defs>
</svg>
