<svg width="25" height="22" viewBox="0 0 25 22" fill="none" xmlns="http://www.w3.org/2000/svg">
<g clip-path="url(#clip0_985_20437)">
<path d="M23.6608 19.8715C23.7123 19.872 23.7634 19.862 23.8108 19.8422C23.8582 19.8223 23.9011 19.793 23.9366 19.7561C23.9721 19.7192 23.9996 19.6755 24.0174 19.6276C24.0351 19.5798 24.0428 19.5288 24.0398 19.4779C24.0398 19.1988 23.8697 19.0654 23.5208 19.0654H22.957V20.5268H23.1691V19.8898H23.4296L23.4356 19.8975L23.84 20.5268H24.0667L23.6317 19.8755L23.6608 19.8715ZM23.4156 19.7251H23.1697V19.231H23.4813C23.6423 19.231 23.8259 19.2571 23.8259 19.4658C23.8259 19.7059 23.6401 19.7251 23.4143 19.7251" fill="black"/>
<path d="M18.1309 18.0405H15.124V13.378C15.124 12.2662 15.104 10.8349 13.5602 10.8349C11.9941 10.8349 11.7545 12.0463 11.7545 13.2971V18.0402H8.74758V8.4522H11.6342V9.7625H11.6746C11.9635 9.27343 12.3809 8.87111 12.8825 8.59837C13.384 8.32563 13.9509 8.19269 14.5227 8.21371C17.5703 8.21371 18.1322 10.1985 18.1322 12.7807L18.1309 18.0405ZM5.35484 7.14158C5.00973 7.14165 4.67234 7.04038 4.38535 6.85058C4.09837 6.66079 3.87468 6.39099 3.74256 6.07531C3.61043 5.75963 3.5758 5.41224 3.64307 5.07708C3.71034 4.74192 3.87648 4.43404 4.12046 4.19237C4.36445 3.9507 4.67534 3.78609 5.01381 3.71937C5.35228 3.65264 5.70312 3.68679 6.02199 3.8175C6.34086 3.94822 6.61342 4.16962 6.8052 4.45371C6.99699 4.7378 7.09939 5.07182 7.09945 5.41354C7.0995 5.64043 7.0544 5.8651 6.96674 6.07474C6.87909 6.28437 6.75061 6.47486 6.58861 6.63532C6.4266 6.79579 6.23425 6.92308 6.02257 7.00995C5.81088 7.09681 5.58399 7.14154 5.35484 7.14158ZM6.85827 18.0405H3.84827V8.4522H6.85827V18.0405ZM19.63 0.921291H2.33733C1.94484 0.916905 1.56662 1.06699 1.28583 1.33856C1.00503 1.61013 0.844634 1.98098 0.839844 2.3696V19.5629C0.84447 19.9518 1.00478 20.3229 1.28556 20.5947C1.56634 20.8666 1.94464 21.0169 2.33733 21.0128H19.63C20.0234 21.0177 20.4028 20.8677 20.6847 20.5959C20.9666 20.324 21.1279 19.9525 21.1334 19.5629V2.36836C21.1278 1.97897 20.9663 1.6077 20.6844 1.33614C20.4025 1.06457 20.0232 0.914914 19.63 0.92005" fill="black"/>
<path d="M23.4418 18.4141C23.0759 18.4175 22.7264 18.5643 22.4696 18.8223C22.2127 19.0803 22.0695 19.4285 22.0713 19.7908C22.0731 20.153 22.2196 20.4998 22.479 20.7553C22.7383 21.0109 23.0892 21.1543 23.4551 21.1543C23.8209 21.1543 24.1719 21.0109 24.4312 20.7553C24.6905 20.4998 24.8371 20.153 24.8389 19.7908C24.8406 19.4285 24.6974 19.0803 24.4406 18.8223C24.1838 18.5643 23.8342 18.4175 23.4684 18.4141H23.4418ZM23.4418 20.9974C23.2018 21.0014 22.9661 20.9348 22.7643 20.8061C22.5626 20.6774 22.404 20.4923 22.3084 20.2744C22.2129 20.0564 22.1848 19.8152 22.2277 19.5814C22.2706 19.3476 22.3826 19.1317 22.5494 18.9609C22.7163 18.7901 22.9305 18.6721 23.1651 18.6219C23.3996 18.5716 23.644 18.5914 23.8672 18.6787C24.0904 18.7659 24.2825 18.9168 24.4191 19.1121C24.5558 19.3075 24.6308 19.5386 24.6348 19.7762C24.6348 19.783 24.6348 19.7895 24.6348 19.7963C24.6415 20.108 24.5229 20.4096 24.3051 20.6347C24.0874 20.8598 23.7882 20.9901 23.4734 20.9968H23.4421" fill="black"/>
</g>
<defs>
<clipPath id="clip0_985_20437">
<rect width="23.9998" height="20.2596" fill="white" transform="translate(0.839844 0.919922)"/>
</clipPath>
</defs>
</svg>
