<svg width="25" height="18" viewBox="0 0 25 18" fill="none" xmlns="http://www.w3.org/2000/svg">
<g clip-path="url(#clip0_985_20441)">
<path d="M24.2571 3.15147C23.9811 2.11568 23.168 1.30004 22.1353 1.02323C20.2637 0.520143 12.7587 0.520143 12.7587 0.520143C12.7587 0.520143 5.25375 0.520143 3.38212 1.02323C2.34954 1.30004 1.53627 2.11568 1.26029 3.15147C0.758789 5.02876 0.758789 8.94562 0.758789 8.94562C0.758789 8.94562 0.758789 12.8624 1.26029 14.7399C1.53627 15.7756 2.34954 16.5912 3.38212 16.8681C5.25375 17.3711 12.7587 17.3711 12.7587 17.3711C12.7587 17.3711 20.2637 17.3711 22.1353 16.8681C23.168 16.5912 23.9811 15.7756 24.2571 14.7399C24.7586 12.8624 24.7586 8.94562 24.7586 8.94562C24.7586 8.94562 24.7586 5.02876 24.2571 3.15147Z" fill="#252323"/>
<path d="M10.3047 12.502L16.5774 8.94593L10.3047 5.38956V12.502Z" fill="white"/>
</g>
<defs>
<clipPath id="clip0_985_20441">
<rect width="23.9998" height="16.851" fill="white" transform="translate(0.758789 0.519531)"/>
</clipPath>
</defs>
</svg>
